<svg xmlns="http://www.w3.org/2000/svg" viewBox="0 0 600 400">
  <defs>
    <linearGradient id="bg" x1="0" y1="0" x2="0" y2="1">
      <stop offset="0%" stop-color="#ffffff" />
      <stop offset="100%" stop-color="#f2f4f8" />
    </linearGradient>
  </defs>
  <rect width="600" height="400" fill="url(#bg)" rx="24" />
  <g transform="translate(60 60)">
    <rect width="480" height="280" rx="20" fill="#ffffff" stroke="#dbe1f0" stroke-width="2" />
    <g transform="translate(40 40)">
      <line x1="0" y1="0" x2="400" y2="0" stroke="#f0f2f7" stroke-width="1" />
      <line x1="0" y1="80" x2="400" y2="80" stroke="#f0f2f7" stroke-width="1" />
      <line x1="0" y1="160" x2="400" y2="160" stroke="#f0f2f7" stroke-width="1" />
      <line x1="0" y1="240" x2="400" y2="240" stroke="#f0f2f7" stroke-width="1" />
      <rect x="0" y="40" width="24" height="200" rx="6" fill="#d94a4a" />
      <rect x="40" y="50" width="24" height="190" rx="6" fill="#d94a4a" />
      <rect x="80" y="30" width="24" height="210" rx="6" fill="#d94a4a" />
      <rect x="120" y="35" width="24" height="205" rx="6" fill="#d94a4a" />
      <rect x="160" y="45" width="24" height="195" rx="6" fill="#d94a4a" />
      <rect x="200" y="20" width="24" height="220" rx="6" fill="#d94a4a" />
      <rect x="240" y="25" width="24" height="215" rx="6" fill="#d94a4a" />
      <rect x="280" y="20" width="24" height="220" rx="6" fill="#d94a4a" />
      <rect x="320" y="40" width="24" height="200" rx="6" fill="#d94a4a" />
      <rect x="360" y="30" width="24" height="210" rx="6" fill="#d94a4a" />
    </g>
    <text x="240" y="20" font-family="'Manrope', 'Arial', sans-serif" font-size="24" fill="#2c2f36" text-anchor="middle">Активность #07</text>
    <text x="240" y="300" font-family="'Manrope', 'Arial', sans-serif" font-size="18" fill="#5f6473" text-anchor="middle">Красные полоски показывают количество звонков и их длительность</text>
  </g>
</svg>
